<svg width="208" height="168" viewBox="0 0 208 168" fill="none" xmlns="http://www.w3.org/2000/svg">
  <path d="M72.5 119.5L69 128L104.5 100.5V92L72.5 119.5Z" fill="#C084FC" stroke="#C084FC"/>
  <path d="M136 119.5L139.5 128L104 100.5V92L136 119.5Z" fill="#C084FC" stroke="#C084FC"/>
  <path d="M104 85.5C104 88.5 83.5 100 73.5 110C67.5 82.5 48.0917 75.4881 42.5 91.5C41.123 95.443 46.5 62.5 22.5 68C15.4184 72.7013 5.5 76.5 1.5 68C8 30.5 38.0331 28.7511 61.5 32C81.348 34.7479 103.07 72.8668 104 85.5Z" fill="#C084FC" stroke="#C084FC"/>
  <path d="M104.5 85.5C104.5 88.5 125 100 135 110C141 82.5 160.408 75.4881 166 91.5C167.377 95.443 162 62.5 186 68C193.082 72.7013 203 76.5 207 68C200.5 30.5 170.467 28.7511 147 32C127.152 34.7479 105.43 72.8668 104.5 85.5Z" fill="#C084FC" stroke="#C084FC"/>
  <g clip-path="url(#clip0_81_19)">
  <rect x="82" width="40" height="40" rx="20" fill="white"/>
  <circle cx="102" cy="20" r="20" fill="#3B0764"/>
  <path d="M100.5 24C100.5 32.0534 94.1875 38.5 86.5 38.5C78.8125 38.5 72.5 32.0534 72.5 24C72.5 15.9466 78.8125 9.5 86.5 9.5C94.1875 9.5 100.5 15.9466 100.5 24Z" fill="#3B0764" stroke="white" stroke-width="3"/>
  <path d="M94.5 24.5C94.5 29.5404 90.6263 33.5 86 33.5C81.3737 33.5 77.5 29.5404 77.5 24.5C77.5 19.4596 81.3737 15.5 86 15.5C90.6263 15.5 94.5 19.4596 94.5 24.5Z" fill="#3B0764" stroke="white" stroke-width="3"/>
  </g>
  <path d="M61.5 133C49.9 149.4 16.3333 162.833 1 167.5H58C70 161.5 101.5 133 104.5 108C100.5 111 80 120 76.5 130C73 130.333 65.1 131.4 61.5 133Z" fill="#C084FC" stroke="#C084FC"/>
  <path d="M147 133C158.6 149.4 192.167 162.833 207.5 167.5H150.5C138.5 161.5 107 133 104 108C108 111 128.5 120 132 130C135.5 130.333 143.4 131.4 147 133Z" fill="#C084FC" stroke="#C084FC"/>
  <defs>
  <clipPath id="clip0_81_19">
  <rect x="82" width="40" height="40" rx="20" fill="white"/>
  </clipPath>
  </defs>
  </svg>
  